<svg xmlns="http://www.w3.org/2000/svg" xmlns:xlink="http://www.w3.org/1999/xlink" width="1080" zoomAndPan="magnify" viewBox="0 0 810 809.999993" height="1080" preserveAspectRatio="xMidYMid meet" version="1.0"><defs><clipPath id="2ec1b0962d"><path d="M 568.675781 471.941406 L 605.425781 471.941406 L 605.425781 508.691406 L 568.675781 508.691406 Z M 568.675781 471.941406 " clip-rule="nonzero"/></clipPath><clipPath id="a7aab2290d"><path d="M 67.332031 0 L 742 0 L 742 810 L 67.332031 810 Z M 67.332031 0 " clip-rule="nonzero"/></clipPath></defs><g clip-path="url(#2ec1b0962d)"><path fill="#000000" d="M 592.433594 496.175781 L 592.101562 496.175781 L 592.101562 489.808594 C 592.101562 489.523438 591.867188 489.289062 591.582031 489.289062 C 591.292969 489.289062 591.0625 489.523438 591.0625 489.808594 L 591.0625 507.640625 L 587.574219 507.640625 L 587.574219 496.769531 C 587.574219 496.480469 587.34375 496.25 587.054688 496.25 C 586.769531 496.25 586.535156 496.480469 586.535156 496.769531 L 586.535156 507.640625 L 583.050781 507.640625 L 583.050781 489.757812 C 583.050781 489.46875 582.816406 489.238281 582.53125 489.238281 C 582.242188 489.238281 582.007812 489.46875 582.007812 489.757812 L 582.007812 496.175781 L 581.679688 496.175781 C 580.761719 496.175781 580.011719 495.429688 580.011719 494.511719 L 580.011719 488.050781 L 581.789062 488.035156 C 582.078125 488.035156 582.308594 487.800781 582.304688 487.511719 C 582.304688 487.226562 582.070312 486.996094 581.785156 486.996094 C 581.785156 486.996094 581.78125 486.996094 581.78125 486.996094 L 580.011719 487.007812 L 580.011719 484.070312 C 580.011719 483.152344 580.761719 482.40625 581.675781 482.40625 L 592.433594 482.40625 C 593.351562 482.40625 594.097656 483.152344 594.097656 484.070312 L 594.097656 487.046875 L 592.316406 487.070312 C 592.03125 487.074219 591.800781 487.3125 591.804688 487.597656 C 591.808594 487.882812 592.039062 488.113281 592.324219 488.113281 C 592.328125 488.113281 592.328125 488.113281 592.332031 488.113281 L 594.097656 488.089844 L 594.097656 494.511719 C 594.097656 495.429688 593.351562 496.175781 592.433594 496.175781 Z M 587.375 471.949219 L 586.734375 471.949219 C 584.636719 472.117188 582.976562 473.875 582.976562 476.015625 C 582.976562 478.265625 584.808594 480.09375 587.054688 480.09375 C 589.304688 480.09375 591.132812 478.265625 591.132812 476.015625 C 591.132812 473.875 589.476562 472.117188 587.375 471.949219 Z M 604.90625 486.996094 C 604.90625 486.996094 604.902344 486.996094 604.902344 486.996094 L 602.386719 487.019531 C 602.238281 487.019531 602.097656 487.085938 602 487.199219 L 601.09375 488.238281 L 599.265625 483.0625 C 599.1875 482.851562 598.988281 482.710938 598.761719 482.71875 C 598.539062 482.722656 598.339844 482.871094 598.277344 483.085938 L 596.132812 490.066406 L 595.222656 487.390625 C 595.203125 487.335938 595.175781 487.285156 595.140625 487.242188 L 595.140625 484.070312 C 595.140625 482.578125 593.925781 481.367188 592.433594 481.367188 L 581.679688 481.367188 C 580.1875 481.367188 578.972656 482.578125 578.972656 484.070312 L 578.972656 487.015625 L 578.570312 487.019531 C 578.417969 487.019531 578.277344 487.085938 578.179688 487.199219 L 577.277344 488.238281 L 575.445312 483.0625 C 575.371094 482.851562 575.167969 482.710938 574.945312 482.71875 C 574.71875 482.722656 574.523438 482.871094 574.457031 483.085938 L 572.3125 490.066406 L 571.402344 487.390625 C 571.328125 487.179688 571.121094 487.035156 570.898438 487.039062 L 569.195312 487.070312 C 568.90625 487.074219 568.679688 487.3125 568.683594 487.601562 C 568.691406 487.886719 568.925781 488.113281 569.214844 488.113281 L 570.539062 488.085938 L 571.847656 491.925781 C 571.917969 492.136719 572.117188 492.277344 572.339844 492.277344 C 572.34375 492.277344 572.34375 492.277344 572.347656 492.277344 C 572.574219 492.273438 572.773438 492.125 572.835938 491.910156 L 574.988281 484.898438 L 576.589844 489.425781 C 576.652344 489.597656 576.804688 489.726562 576.984375 489.761719 C 577.167969 489.796875 577.351562 489.734375 577.476562 489.59375 L 578.8125 488.058594 L 578.972656 488.058594 L 578.972656 494.511719 C 578.972656 496.003906 580.1875 497.21875 581.679688 497.21875 L 582.007812 497.21875 L 582.007812 508.160156 C 582.007812 508.449219 582.242188 508.679688 582.53125 508.679688 L 591.582031 508.679688 C 591.867188 508.679688 592.101562 508.449219 592.101562 508.160156 L 592.101562 497.21875 L 592.433594 497.21875 C 593.925781 497.21875 595.140625 496.003906 595.140625 494.511719 L 595.140625 490.378906 L 595.664062 491.925781 C 595.738281 492.136719 595.9375 492.277344 596.160156 492.277344 C 596.160156 492.277344 596.164062 492.277344 596.167969 492.277344 C 596.390625 492.273438 596.589844 492.125 596.65625 491.910156 L 598.808594 484.898438 L 600.410156 489.425781 C 600.472656 489.597656 600.621094 489.726562 600.804688 489.761719 C 600.984375 489.796875 601.171875 489.734375 601.292969 489.59375 L 602.628906 488.058594 L 604.910156 488.035156 C 605.199219 488.035156 605.429688 487.796875 605.425781 487.511719 C 605.421875 487.226562 605.191406 486.996094 604.90625 486.996094 Z M 587.347656 489.21875 C 588.367188 488.300781 589.507812 487.214844 589.507812 486.324219 C 589.507812 485.953125 589.140625 485.648438 588.6875 485.648438 C 588.316406 485.648438 588.132812 485.753906 587.90625 486.101562 C 587.785156 486.292969 587.574219 486.40625 587.347656 486.40625 C 587.117188 486.40625 586.90625 486.292969 586.785156 486.101562 C 586.558594 485.753906 586.378906 485.648438 586.003906 485.648438 C 585.550781 485.648438 585.183594 485.953125 585.183594 486.324219 C 585.183594 487.214844 586.324219 488.300781 587.347656 489.21875 Z M 588.6875 484.609375 C 588.132812 484.609375 587.703125 484.773438 587.347656 485.140625 C 586.988281 484.773438 586.558594 484.609375 586.003906 484.609375 C 584.976562 484.609375 584.144531 485.378906 584.144531 486.324219 C 584.144531 487.753906 585.609375 489.0625 586.898438 490.214844 C 587.027344 490.328125 587.1875 490.386719 587.347656 490.386719 C 587.503906 490.386719 587.664062 490.328125 587.792969 490.214844 C 589.085938 489.0625 590.550781 487.753906 590.550781 486.324219 C 590.550781 485.378906 589.714844 484.609375 588.6875 484.609375 Z M 587.054688 472.980469 C 588.730469 472.980469 590.089844 474.339844 590.089844 476.015625 C 590.089844 477.691406 588.730469 479.050781 587.054688 479.050781 C 585.382812 479.050781 584.019531 477.691406 584.019531 476.015625 C 584.019531 474.339844 585.382812 472.980469 587.054688 472.980469 Z M 587.054688 472.980469 " fill-opacity="1" fill-rule="evenodd"/></g><path fill="#0b4b92" d="M 148.207031 431.960938 L 417.800781 431.960938 C 425.226562 431.960938 431.28125 425.902344 431.28125 418.480469 C 431.28125 411.054688 425.226562 405 417.800781 405 L 148.207031 405 C 140.785156 405 134.730469 411.054688 134.730469 418.480469 C 134.730469 425.902344 140.785156 431.960938 148.207031 431.960938 " fill-opacity="1" fill-rule="nonzero"/><path fill="#0b4b92" d="M 336.921875 472.398438 L 148.207031 472.398438 C 140.785156 472.398438 134.730469 478.453125 134.730469 485.878906 C 134.730469 493.300781 140.785156 499.355469 148.207031 499.355469 L 336.921875 499.355469 C 344.347656 499.355469 350.402344 493.300781 350.402344 485.878906 C 350.402344 478.453125 344.347656 472.398438 336.921875 472.398438 " fill-opacity="1" fill-rule="nonzero"/><path fill="#0b4b92" d="M 336.921875 661.113281 L 148.207031 661.113281 C 140.785156 661.113281 134.730469 667.167969 134.730469 674.59375 C 134.730469 682.015625 140.785156 688.070312 148.207031 688.070312 L 336.921875 688.070312 C 344.347656 688.070312 350.402344 682.015625 350.402344 674.59375 C 350.402344 667.167969 344.347656 661.113281 336.921875 661.113281 " fill-opacity="1" fill-rule="nonzero"/><path fill="#0b4b92" d="M 148.207031 620.671875 L 283.003906 620.671875 C 290.429688 620.671875 296.484375 614.617188 296.484375 607.195312 C 296.484375 599.769531 290.429688 593.714844 283.003906 593.714844 L 148.207031 593.714844 C 140.785156 593.714844 134.730469 599.769531 134.730469 607.195312 C 134.730469 614.617188 140.785156 620.671875 148.207031 620.671875 " fill-opacity="1" fill-rule="nonzero"/><g clip-path="url(#a7aab2290d)"><path fill="#0b4b92" d="M 513.160156 574.652344 L 468.824219 548.011719 L 623.679688 288.6875 L 669.804688 315.699219 Z M 459.449219 573.863281 L 494.78125 595.03125 L 445.285156 637.417969 Z M 579.554688 782.429688 L 94.289062 782.429688 L 94.289062 121.929688 L 229.085938 121.929688 L 229.085938 148.886719 C 229.085938 156.3125 235.140625 162.367188 242.566406 162.367188 L 431.28125 162.367188 C 438.703125 162.367188 444.761719 156.3125 444.761719 148.886719 L 444.761719 121.929688 L 579.554688 121.929688 L 579.554688 310.011719 L 438.757812 545.746094 C 438.285156 546.589844 438.125 547.535156 437.808594 548.429688 C 437.652344 548.90625 437.28125 549.273438 437.179688 549.746094 L 410.21875 671.0625 C 408.953125 676.699219 411.480469 682.542969 416.433594 685.542969 C 418.589844 686.808594 421.011719 687.441406 423.382812 687.441406 C 426.542969 687.441406 429.648438 686.335938 432.175781 684.226562 L 526.53125 603.351562 C 526.585938 603.246094 526.691406 603.140625 526.742188 603.085938 C 527.058594 602.769531 527.375 602.402344 527.691406 602.035156 C 528.164062 601.558594 528.585938 601.035156 528.953125 600.453125 C 529.058594 600.296875 529.164062 600.191406 529.269531 600.085938 L 579.554688 516.945312 Z M 256.046875 81.488281 L 417.800781 81.488281 L 417.800781 135.40625 L 256.046875 135.40625 Z M 323.445312 41.050781 C 323.445312 33.625 329.5 27.570312 336.921875 27.570312 C 344.347656 27.570312 350.402344 33.625 350.402344 41.050781 C 350.402344 48.476562 344.347656 54.53125 336.921875 54.53125 C 329.5 54.53125 323.445312 48.476562 323.445312 41.050781 Z M 655.957031 234.609375 L 702.609375 261.515625 L 683.761719 292.636719 L 637.476562 265.519531 Z M 740.363281 335.128906 C 738.414062 327.808594 733.675781 321.699219 727.304688 318.171875 L 707.03125 306.273438 L 732.78125 263.726562 C 734.675781 260.621094 735.203125 256.882812 734.308594 253.355469 C 733.414062 249.878906 731.148438 246.878906 727.988281 245.035156 L 657.960938 204.597656 C 651.585938 200.910156 643.425781 203.070312 639.636719 209.386719 L 607.777344 262.78125 C 607.621094 262.992188 607.359375 263.148438 607.199219 263.359375 C 607.09375 263.621094 607.09375 263.886719 606.9375 264.097656 L 606.515625 264.832031 L 606.515625 108.449219 C 606.515625 101.023438 600.460938 94.96875 593.035156 94.96875 L 444.761719 94.96875 L 444.761719 68.011719 C 444.761719 60.585938 438.703125 54.53125 431.28125 54.53125 L 374.886719 54.53125 C 376.363281 50.265625 377.363281 45.789062 377.363281 41.050781 C 377.363281 18.726562 359.25 0.613281 336.921875 0.613281 C 314.597656 0.613281 296.484375 18.726562 296.484375 41.050781 C 296.484375 45.789062 297.484375 50.265625 298.960938 54.53125 L 242.566406 54.53125 C 235.140625 54.53125 229.085938 60.585938 229.085938 68.011719 L 229.085938 94.96875 L 80.8125 94.96875 C 73.386719 94.96875 67.332031 101.023438 67.332031 108.449219 L 67.332031 795.910156 C 67.332031 803.332031 73.386719 809.386719 80.8125 809.386719 L 593.035156 809.386719 C 600.460938 809.386719 606.515625 803.332031 606.515625 795.910156 L 606.515625 472.398438 L 693.078125 329.335938 L 713.667969 341.394531 C 713.71875 341.445312 714.140625 342.710938 714.246094 342.761719 L 640.953125 464.867188 C 637.160156 471.238281 639.214844 479.507812 645.585938 483.351562 C 647.742188 484.613281 650.167969 485.246094 652.535156 485.246094 C 657.117188 485.246094 661.59375 482.929688 664.121094 478.714844 L 737.363281 356.609375 C 741.257812 350.132812 742.3125 342.5 740.363281 335.128906 " fill-opacity="1" fill-rule="nonzero"/></g><path fill="#0b4b92" d="M 161.6875 216.285156 L 195.808594 216.285156 C 199.914062 222.128906 204.128906 232.238281 196.019531 243.246094 L 161.6875 243.246094 Z M 148.207031 324.121094 C 155.632812 324.121094 161.6875 318.066406 161.6875 310.644531 L 161.6875 275.785156 L 203.285156 317.382812 L 179.117188 341.550781 C 173.851562 346.816406 173.851562 355.347656 179.117188 360.613281 C 181.75 363.246094 185.171875 364.5625 188.648438 364.5625 C 192.121094 364.5625 195.546875 363.246094 198.179688 360.613281 L 222.347656 336.445312 L 246.515625 360.613281 C 249.148438 363.246094 252.570312 364.5625 256.046875 364.5625 C 259.519531 364.5625 262.945312 363.246094 265.578125 360.613281 C 270.839844 355.347656 270.839844 346.816406 265.578125 341.550781 L 241.40625 317.382812 L 265.578125 293.214844 C 270.839844 287.949219 270.839844 279.417969 265.578125 274.152344 C 260.3125 268.886719 251.78125 268.886719 246.515625 274.152344 L 222.347656 298.320312 L 194.230469 270.203125 L 202.128906 270.203125 C 205.707031 270.203125 209.128906 268.78125 211.65625 266.253906 C 238.460938 239.453125 226.347656 207.964844 211.65625 193.277344 C 209.128906 190.746094 205.707031 189.328125 202.128906 189.328125 L 148.207031 189.328125 C 140.785156 189.328125 134.730469 195.382812 134.730469 202.804688 L 134.730469 310.644531 C 134.730469 318.066406 140.785156 324.121094 148.207031 324.121094 " fill-opacity="1" fill-rule="nonzero"/></svg>