<svg xmlns="http://www.w3.org/2000/svg" xmlns:xlink="http://www.w3.org/1999/xlink" width="1080" zoomAndPan="magnify" viewBox="0 0 810 809.999993" height="1080" preserveAspectRatio="xMidYMid meet" version="1.0"><defs><clipPath id="5cb0aeb48d"><path d="M 605.4375 510 L 635.4375 510 L 635.4375 539.992188 L 605.4375 539.992188 Z M 605.4375 510 " clip-rule="nonzero"/></clipPath></defs><g clip-path="url(#5cb0aeb48d)"><path fill="#000000" d="M 624.828125 529.773438 L 624.558594 529.773438 L 624.558594 524.578125 C 624.558594 524.34375 624.367188 524.152344 624.132812 524.152344 C 623.898438 524.152344 623.710938 524.34375 623.710938 524.578125 L 623.710938 539.132812 L 620.863281 539.132812 L 620.863281 530.257812 C 620.863281 530.023438 620.675781 529.832031 620.4375 529.832031 C 620.203125 529.832031 620.015625 530.023438 620.015625 530.257812 L 620.015625 539.132812 L 617.171875 539.132812 L 617.171875 524.535156 C 617.171875 524.300781 616.980469 524.109375 616.746094 524.109375 C 616.511719 524.109375 616.320312 524.300781 616.320312 524.535156 L 616.320312 529.773438 L 616.050781 529.773438 C 615.300781 529.773438 614.691406 529.164062 614.691406 528.417969 L 614.691406 523.140625 L 616.140625 523.128906 C 616.375 523.128906 616.566406 522.9375 616.5625 522.703125 C 616.5625 522.46875 616.371094 522.28125 616.136719 522.28125 C 616.136719 522.28125 616.136719 522.28125 616.132812 522.28125 L 614.691406 522.289062 L 614.691406 519.890625 C 614.691406 519.144531 615.300781 518.535156 616.050781 518.535156 L 624.828125 518.535156 C 625.578125 518.535156 626.1875 519.144531 626.1875 519.890625 L 626.1875 522.324219 L 624.734375 522.339844 C 624.5 522.34375 624.3125 522.539062 624.316406 522.773438 C 624.320312 523.003906 624.507812 523.191406 624.742188 523.191406 C 624.742188 523.191406 624.746094 523.191406 624.746094 523.191406 L 626.1875 523.171875 L 626.1875 528.414062 C 626.1875 529.164062 625.578125 529.773438 624.828125 529.773438 Z M 620.703125 510 L 620.175781 510 C 618.464844 510.132812 617.109375 511.570312 617.109375 513.316406 C 617.109375 515.152344 618.605469 516.644531 620.4375 516.644531 C 622.273438 516.644531 623.769531 515.152344 623.769531 513.316406 C 623.769531 511.570312 622.414062 510.132812 620.703125 510 Z M 635.011719 522.28125 C 635.011719 522.28125 635.007812 522.28125 635.007812 522.28125 L 632.953125 522.300781 C 632.832031 522.300781 632.71875 522.355469 632.636719 522.445312 L 631.898438 523.292969 L 630.40625 519.070312 C 630.34375 518.898438 630.179688 518.78125 629.996094 518.789062 C 629.8125 518.792969 629.652344 518.914062 629.597656 519.085938 L 627.847656 524.785156 L 627.105469 522.605469 C 627.089844 522.558594 627.066406 522.515625 627.039062 522.480469 L 627.039062 519.890625 C 627.039062 518.675781 626.046875 517.683594 624.828125 517.683594 L 616.050781 517.683594 C 614.832031 517.683594 613.839844 518.675781 613.839844 519.890625 L 613.839844 522.296875 L 613.511719 522.300781 C 613.390625 522.300781 613.273438 522.355469 613.195312 522.445312 L 612.457031 523.292969 L 610.960938 519.070312 C 610.902344 518.898438 610.738281 518.78125 610.550781 518.789062 C 610.367188 518.792969 610.207031 518.914062 610.15625 519.085938 L 608.40625 524.785156 L 607.660156 522.605469 C 607.601562 522.429688 607.433594 522.3125 607.25 522.316406 L 605.859375 522.339844 C 605.625 522.34375 605.4375 522.539062 605.441406 522.773438 C 605.445312 523.007812 605.636719 523.195312 605.875 523.191406 L 606.957031 523.171875 L 608.023438 526.304688 C 608.082031 526.476562 608.246094 526.589844 608.425781 526.589844 C 608.429688 526.589844 608.429688 526.589844 608.433594 526.589844 C 608.617188 526.589844 608.777344 526.46875 608.832031 526.292969 L 610.589844 520.566406 L 611.898438 524.261719 C 611.949219 524.40625 612.070312 524.511719 612.21875 524.539062 C 612.367188 524.566406 612.519531 524.515625 612.617188 524.398438 L 613.710938 523.148438 L 613.839844 523.148438 L 613.839844 528.417969 C 613.839844 529.632812 614.832031 530.625 616.050781 530.625 L 616.320312 530.625 L 616.320312 539.558594 C 616.320312 539.792969 616.511719 539.980469 616.746094 539.980469 L 624.132812 539.980469 C 624.367188 539.980469 624.558594 539.792969 624.558594 539.558594 L 624.558594 530.625 L 624.828125 530.625 C 626.046875 530.625 627.039062 529.632812 627.039062 528.417969 L 627.039062 525.042969 L 627.46875 526.304688 C 627.527344 526.476562 627.6875 526.589844 627.871094 526.589844 C 627.871094 526.589844 627.875 526.589844 627.878906 526.589844 C 628.0625 526.589844 628.222656 526.46875 628.277344 526.292969 L 630.035156 520.566406 L 631.339844 524.261719 C 631.390625 524.40625 631.511719 524.511719 631.664062 524.539062 C 631.808594 524.566406 631.960938 524.515625 632.0625 524.398438 L 633.152344 523.148438 L 635.015625 523.128906 C 635.25 523.128906 635.4375 522.933594 635.4375 522.699219 C 635.433594 522.46875 635.246094 522.28125 635.011719 522.28125 Z M 620.675781 524.09375 C 621.507812 523.347656 622.441406 522.460938 622.441406 521.734375 C 622.441406 521.429688 622.140625 521.179688 621.769531 521.179688 C 621.46875 521.179688 621.320312 521.265625 621.136719 521.550781 C 621.035156 521.707031 620.863281 521.796875 620.675781 521.796875 C 620.492188 521.796875 620.320312 521.707031 620.21875 521.550781 C 620.035156 521.265625 619.886719 521.179688 619.582031 521.179688 C 619.210938 521.179688 618.910156 521.429688 618.910156 521.734375 C 618.910156 522.460938 619.84375 523.347656 620.675781 524.09375 Z M 621.769531 520.332031 C 621.316406 520.332031 620.96875 520.46875 620.675781 520.765625 C 620.386719 520.46875 620.035156 520.332031 619.582031 520.332031 C 618.742188 520.332031 618.0625 520.960938 618.0625 521.734375 C 618.0625 522.898438 619.257812 523.96875 620.3125 524.910156 C 620.417969 525 620.546875 525.046875 620.675781 525.046875 C 620.808594 525.046875 620.9375 525 621.039062 524.910156 C 622.097656 523.96875 623.292969 522.898438 623.292969 521.734375 C 623.292969 520.960938 622.609375 520.332031 621.769531 520.332031 Z M 620.4375 510.839844 C 621.804688 510.839844 622.917969 511.949219 622.917969 513.316406 C 622.917969 514.683594 621.804688 515.792969 620.4375 515.792969 C 619.074219 515.792969 617.960938 514.683594 617.960938 513.316406 C 617.960938 511.949219 619.074219 510.839844 620.4375 510.839844 Z M 620.4375 510.839844 " fill-opacity="1" fill-rule="evenodd"/></g><path fill="#0b4b92" d="M 363.148438 600.03125 C 362.316406 599.195312 361.441406 598.402344 360.53125 597.65625 C 359.621094 596.90625 358.671875 596.203125 357.691406 595.546875 C 356.710938 594.890625 355.703125 594.285156 354.660156 593.726562 C 353.621094 593.171875 352.554688 592.667969 351.464844 592.214844 C 350.375 591.765625 349.265625 591.367188 348.136719 591.023438 C 347.007812 590.679688 345.867188 590.394531 344.707031 590.164062 C 343.550781 589.933594 342.386719 589.761719 341.210938 589.644531 C 340.035156 589.53125 338.859375 589.472656 337.679688 589.472656 C 336.5 589.472656 335.324219 589.53125 334.148438 589.644531 C 332.976562 589.761719 331.808594 589.933594 330.652344 590.164062 C 329.496094 590.394531 328.351562 590.679688 327.222656 591.023438 C 326.09375 591.367188 324.984375 591.765625 323.894531 592.214844 C 322.804688 592.667969 321.738281 593.171875 320.699219 593.726562 C 319.660156 594.285156 318.648438 594.890625 317.667969 595.546875 C 316.6875 596.203125 315.738281 596.90625 314.828125 597.65625 C 313.917969 598.402344 313.042969 599.195312 312.210938 600.03125 L 274.050781 638.191406 C 273.632812 638.609375 273.195312 639.003906 272.742188 639.378906 C 272.285156 639.753906 271.8125 640.101562 271.320312 640.429688 C 270.832031 640.757812 270.324219 641.0625 269.804688 641.339844 C 269.285156 641.617188 268.753906 641.871094 268.207031 642.097656 C 267.664062 642.324219 267.109375 642.523438 266.542969 642.691406 C 265.980469 642.863281 265.40625 643.007812 264.828125 643.121094 C 264.25 643.238281 263.667969 643.324219 263.082031 643.382812 C 262.492188 643.441406 261.90625 643.46875 261.316406 643.46875 C 260.726562 643.46875 260.136719 643.441406 259.550781 643.382812 C 258.960938 643.324219 258.378906 643.238281 257.800781 643.121094 C 257.222656 643.007812 256.652344 642.863281 256.085938 642.691406 C 255.523438 642.523438 254.96875 642.324219 254.421875 642.097656 C 253.878906 641.871094 253.34375 641.617188 252.824219 641.339844 C 252.304688 641.0625 251.800781 640.757812 251.308594 640.429688 C 250.816406 640.101562 250.34375 639.753906 249.890625 639.378906 C 249.433594 639.003906 248.996094 638.609375 248.578125 638.191406 L 172.261719 561.871094 C 171.84375 561.453125 171.445312 561.015625 171.070312 560.5625 C 170.699219 560.105469 170.347656 559.632812 170.019531 559.140625 C 169.691406 558.652344 169.386719 558.144531 169.109375 557.625 C 168.832031 557.105469 168.578125 556.574219 168.351562 556.027344 C 168.128906 555.484375 167.929688 554.929688 167.757812 554.363281 C 167.585938 553.800781 167.441406 553.226562 167.328125 552.648438 C 167.210938 552.070312 167.125 551.488281 167.066406 550.902344 C 167.007812 550.3125 166.980469 549.726562 166.980469 549.136719 C 166.980469 548.546875 167.011719 547.957031 167.066406 547.371094 C 167.125 546.78125 167.210938 546.199219 167.328125 545.621094 C 167.441406 545.042969 167.585938 544.472656 167.757812 543.90625 C 167.929688 543.34375 168.128906 542.789062 168.351562 542.242188 C 168.578125 541.695312 168.832031 541.164062 169.109375 540.644531 C 169.386719 540.125 169.691406 539.617188 170.019531 539.128906 C 170.347656 538.636719 170.699219 538.164062 171.070312 537.710938 C 171.445312 537.253906 171.84375 536.816406 172.261719 536.398438 L 210.421875 498.238281 C 211.253906 497.40625 212.046875 496.535156 212.796875 495.621094 C 213.542969 494.710938 214.246094 493.765625 214.902344 492.78125 C 215.558594 491.800781 216.164062 490.792969 216.722656 489.75 C 217.277344 488.710938 217.78125 487.644531 218.234375 486.554688 C 218.6875 485.464844 219.082031 484.355469 219.425781 483.226562 C 219.769531 482.097656 220.054688 480.957031 220.285156 479.796875 C 220.515625 478.640625 220.6875 477.476562 220.804688 476.300781 C 220.921875 475.125 220.976562 473.949219 220.976562 472.769531 C 220.976562 471.589844 220.921875 470.414062 220.804688 469.238281 C 220.6875 468.066406 220.515625 466.898438 220.285156 465.742188 C 220.054688 464.585938 219.769531 463.441406 219.425781 462.3125 C 219.082031 461.183594 218.6875 460.074219 218.234375 458.984375 C 217.78125 457.894531 217.277344 456.828125 216.722656 455.789062 C 216.164062 454.75 215.558594 453.738281 214.902344 452.757812 C 214.246094 451.777344 213.542969 450.828125 212.796875 449.917969 C 212.046875 449.007812 211.253906 448.132812 210.421875 447.300781 L 134.011719 370.980469 C 133.175781 370.148438 132.304688 369.359375 131.394531 368.613281 C 130.484375 367.867188 129.539062 367.167969 128.558594 366.515625 C 127.578125 365.863281 126.570312 365.257812 125.53125 364.703125 C 124.492188 364.152344 123.429688 363.648438 122.339844 363.199219 C 121.253906 362.75 120.144531 362.351562 119.019531 362.011719 C 117.894531 361.671875 116.753906 361.386719 115.597656 361.15625 C 114.441406 360.925781 113.28125 360.753906 112.109375 360.640625 C 110.9375 360.523438 109.761719 360.464844 108.585938 360.464844 C 107.40625 360.464844 106.234375 360.523438 105.0625 360.640625 C 103.890625 360.753906 102.726562 360.925781 101.574219 361.15625 C 100.417969 361.386719 99.277344 361.671875 98.152344 362.011719 C 97.023438 362.351562 95.917969 362.75 94.828125 363.199219 C 93.742188 363.648438 92.675781 364.152344 91.640625 364.703125 C 90.601562 365.257812 89.589844 365.863281 88.613281 366.515625 C 87.632812 367.167969 86.6875 367.867188 85.777344 368.613281 C 84.867188 369.359375 83.992188 370.148438 83.160156 370.980469 L 44.910156 409.140625 L 32.21875 421.828125 C 30.964844 423.082031 29.742188 424.359375 28.550781 425.671875 C 27.359375 426.980469 26.199219 428.320312 25.074219 429.6875 C 23.949219 431.054688 22.855469 432.449219 21.800781 433.871094 C 20.742188 435.292969 19.71875 436.738281 18.734375 438.210938 C 17.75 439.683594 16.800781 441.179688 15.886719 442.695312 C 14.972656 444.214844 14.097656 445.753906 13.261719 447.316406 C 12.425781 448.878906 11.628906 450.457031 10.871094 452.058594 C 10.109375 453.660156 9.390625 455.277344 8.710938 456.914062 C 8.03125 458.550781 7.394531 460.203125 6.796875 461.867188 C 6.199219 463.535156 5.640625 465.21875 5.125 466.910156 C 4.609375 468.605469 4.136719 470.3125 3.707031 472.03125 C 3.273438 473.75 2.886719 475.476562 2.539062 477.214844 C 2.191406 478.953125 1.890625 480.695312 1.628906 482.449219 C 1.367188 484.199219 1.152344 485.957031 0.976562 487.722656 C 0.804688 489.484375 0.671875 491.25 0.585938 493.019531 C 0.5 494.789062 0.453125 496.558594 0.453125 498.328125 C 0.453125 500.101562 0.5 501.871094 0.585938 503.640625 C 0.671875 505.410156 0.804688 507.175781 0.976562 508.9375 C 1.152344 510.703125 1.367188 512.460938 1.628906 514.210938 C 1.890625 515.964844 2.191406 517.707031 2.539062 519.445312 C 2.886719 521.183594 3.273438 522.910156 3.707031 524.628906 C 4.136719 526.347656 4.609375 528.054688 5.125 529.746094 C 5.640625 531.441406 6.199219 533.125 6.796875 534.792969 C 7.394531 536.457031 8.03125 538.109375 8.710938 539.746094 C 9.390625 541.382812 10.109375 543 10.871094 544.601562 C 11.628906 546.203125 12.425781 547.78125 13.261719 549.34375 C 14.097656 550.90625 14.972656 552.445312 15.886719 553.964844 C 16.800781 555.480469 17.75 556.976562 18.734375 558.449219 C 19.71875 559.921875 20.742188 561.367188 21.800781 562.789062 C 22.855469 564.210938 23.949219 565.605469 25.074219 566.972656 C 26.199219 568.339844 27.359375 569.679688 28.550781 570.988281 C 29.742188 572.300781 30.964844 573.578125 32.21875 574.828125 L 235.890625 778.230469 C 237.140625 779.484375 238.421875 780.707031 239.730469 781.898438 C 241.042969 783.089844 242.382812 784.25 243.75 785.375 C 245.117188 786.503906 246.511719 787.59375 247.933594 788.652344 C 249.351562 789.707031 250.800781 790.730469 252.273438 791.714844 C 253.742188 792.703125 255.238281 793.652344 256.757812 794.5625 C 258.273438 795.476562 259.816406 796.351562 261.375 797.1875 C 262.9375 798.023438 264.519531 798.820312 266.117188 799.582031 C 267.71875 800.339844 269.335938 801.058594 270.972656 801.738281 C 272.609375 802.417969 274.261719 803.054688 275.929688 803.652344 C 277.597656 804.253906 279.277344 804.808594 280.972656 805.324219 C 282.667969 805.839844 284.375 806.3125 286.089844 806.746094 C 287.808594 807.175781 289.535156 807.5625 291.273438 807.910156 C 293.011719 808.257812 294.757812 808.5625 296.507812 808.820312 C 298.261719 809.082031 300.019531 809.296875 301.78125 809.472656 C 303.542969 809.648438 305.308594 809.777344 307.078125 809.863281 C 308.847656 809.953125 310.617188 809.996094 312.390625 809.996094 C 314.160156 809.996094 315.933594 809.953125 317.699219 809.863281 C 319.46875 809.777344 321.234375 809.648438 323 809.472656 C 324.761719 809.296875 326.519531 809.082031 328.273438 808.820312 C 330.023438 808.5625 331.769531 808.257812 333.503906 807.910156 C 335.242188 807.5625 336.96875 807.175781 338.6875 806.746094 C 340.40625 806.3125 342.113281 805.839844 343.808594 805.324219 C 345.503906 804.808594 347.183594 804.253906 348.851562 803.652344 C 350.519531 803.054688 352.171875 802.417969 353.804688 801.738281 C 355.441406 801.058594 357.0625 800.339844 358.660156 799.582031 C 360.261719 798.820312 361.84375 798.023438 363.402344 797.1875 C 364.964844 796.351562 366.503906 795.476562 368.023438 794.5625 C 369.542969 793.652344 371.035156 792.703125 372.507812 791.714844 C 373.980469 790.730469 375.425781 789.707031 376.847656 788.652344 C 378.269531 787.59375 379.664062 786.503906 381.03125 785.375 C 382.398438 784.25 383.738281 783.089844 385.046875 781.898438 C 386.359375 780.707031 387.640625 779.484375 388.890625 778.230469 L 401.578125 765.539062 L 439.738281 727.289062 C 440.570312 726.457031 441.359375 725.585938 442.105469 724.671875 C 442.851562 723.761719 443.550781 722.816406 444.203125 721.839844 C 444.859375 720.859375 445.460938 719.851562 446.015625 718.8125 C 446.570312 717.773438 447.070312 716.710938 447.519531 715.621094 C 447.972656 714.535156 448.367188 713.425781 448.707031 712.300781 C 449.050781 711.171875 449.335938 710.03125 449.5625 708.878906 C 449.792969 707.722656 449.964844 706.558594 450.082031 705.386719 C 450.195312 704.214844 450.253906 703.042969 450.253906 701.863281 C 450.253906 700.6875 450.195312 699.511719 450.082031 698.339844 C 449.964844 697.171875 449.792969 696.007812 449.5625 694.851562 C 449.335938 693.699219 449.050781 692.558594 448.707031 691.429688 C 448.367188 690.304688 447.972656 689.195312 447.519531 688.109375 C 447.070312 687.019531 446.570312 685.957031 446.015625 684.917969 C 445.460938 683.878906 444.859375 682.871094 444.203125 681.890625 C 443.550781 680.914062 442.851562 679.96875 442.105469 679.054688 C 441.359375 678.144531 440.570312 677.273438 439.738281 676.441406 Z M 108.449219 396 L 184.859375 472.410156 L 159.390625 497.878906 L 83.070312 421.46875 Z M 312.210938 774 C 307.488281 773.980469 302.816406 773.5 298.191406 772.5625 C 293.566406 771.621094 289.074219 770.242188 284.722656 768.421875 C 280.367188 766.597656 276.230469 764.371094 272.316406 761.734375 C 268.398438 759.097656 264.777344 756.109375 261.449219 752.761719 L 57.691406 549 C 56.855469 548.167969 56.046875 547.3125 55.253906 546.441406 C 54.464844 545.566406 53.695312 544.675781 52.949219 543.765625 C 52.203125 542.855469 51.476562 541.925781 50.777344 540.980469 C 50.074219 540.035156 49.398438 539.070312 48.742188 538.089844 C 48.089844 537.113281 47.457031 536.117188 46.855469 535.105469 C 46.25 534.097656 45.667969 533.070312 45.113281 532.03125 C 44.558594 530.992188 44.027344 529.941406 43.527344 528.878906 C 43.023438 527.8125 42.546875 526.734375 42.09375 525.648438 C 41.644531 524.558594 41.21875 523.460938 40.824219 522.351562 C 40.425781 521.242188 40.058594 520.125 39.714844 518.996094 C 39.375 517.871094 39.058594 516.734375 38.773438 515.59375 C 38.488281 514.449219 38.230469 513.300781 38 512.144531 C 37.769531 510.992188 37.570312 509.832031 37.398438 508.664062 C 37.222656 507.5 37.082031 506.332031 36.964844 505.160156 C 36.847656 503.988281 36.761719 502.8125 36.703125 501.636719 C 36.648438 500.460938 36.617188 499.28125 36.617188 498.105469 C 36.617188 496.925781 36.648438 495.75 36.703125 494.574219 C 36.761719 493.398438 36.847656 492.222656 36.964844 491.050781 C 37.082031 489.878906 37.222656 488.710938 37.398438 487.542969 C 37.570312 486.378906 37.769531 485.21875 38 484.0625 C 38.230469 482.910156 38.488281 481.761719 38.773438 480.617188 C 39.058594 479.476562 39.375 478.339844 39.714844 477.214844 C 40.058594 476.085938 40.425781 474.96875 40.824219 473.859375 C 41.21875 472.75 41.644531 471.652344 42.09375 470.5625 C 42.546875 469.472656 43.023438 468.398438 43.527344 467.332031 C 44.027344 466.269531 44.558594 465.214844 45.113281 464.175781 C 45.667969 463.136719 46.25 462.113281 46.855469 461.101562 C 47.457031 460.09375 48.089844 459.097656 48.742188 458.117188 C 49.398438 457.140625 50.074219 456.175781 50.777344 455.230469 C 51.476562 454.285156 52.203125 453.355469 52.949219 452.445312 C 53.695312 451.535156 54.464844 450.640625 55.253906 449.769531 C 56.046875 448.894531 56.855469 448.042969 57.691406 447.210938 L 136.261719 525.78125 C 134.523438 529.402344 133.203125 533.175781 132.308594 537.09375 C 131.414062 541.011719 130.960938 544.980469 130.949219 549 C 130.953125 552.542969 131.300781 556.054688 131.996094 559.53125 C 132.691406 563.007812 133.71875 566.382812 135.074219 569.65625 C 136.433594 572.929688 138.101562 576.039062 140.070312 578.984375 C 142.042969 581.929688 144.28125 584.65625 146.789062 587.160156 L 223.109375 663.480469 C 224.089844 664.460938 225.105469 665.402344 226.160156 666.300781 C 227.210938 667.203125 228.296875 668.0625 229.414062 668.882812 C 230.535156 669.699219 231.683594 670.472656 232.859375 671.203125 C 234.039062 671.933594 235.242188 672.617188 236.472656 673.253906 C 237.707031 673.890625 238.957031 674.476562 240.234375 675.019531 C 241.511719 675.558594 242.804688 676.046875 244.121094 676.488281 C 245.433594 676.929688 246.761719 677.320312 248.105469 677.65625 C 249.449219 677.996094 250.804688 678.28125 252.171875 678.515625 C 253.539062 678.75 254.910156 678.929688 256.289062 679.058594 C 257.667969 679.1875 259.050781 679.261719 260.4375 679.285156 C 261.824219 679.304688 263.207031 679.273438 264.589844 679.191406 C 265.972656 679.105469 267.351562 678.96875 268.726562 678.777344 C 270.097656 678.585938 271.460938 678.34375 272.816406 678.046875 C 274.167969 677.75 275.507812 677.402344 276.835938 677.003906 C 278.164062 676.605469 279.472656 676.15625 280.765625 675.65625 C 282.058594 675.15625 283.328125 674.609375 284.578125 674.011719 L 363.148438 752.578125 C 359.820312 755.953125 356.191406 758.96875 352.261719 761.628906 C 348.335938 764.285156 344.1875 766.535156 339.816406 768.371094 C 335.445312 770.210938 330.9375 771.601562 326.292969 772.550781 C 321.644531 773.496094 316.953125 773.980469 312.210938 774 Z M 414.449219 702 L 388.980469 727.378906 L 312.570312 651.058594 L 338.039062 625.589844 Z M 414.449219 702 " fill-opacity="1" fill-rule="nonzero"/><path fill="#0b4b92" d="M 531.449219 0 C 526.882812 0 522.320312 0.113281 517.761719 0.335938 C 513.199219 0.558594 508.648438 0.894531 504.101562 1.34375 C 499.558594 1.792969 495.027344 2.351562 490.511719 3.019531 C 485.996094 3.691406 481.5 4.46875 477.019531 5.359375 C 472.542969 6.25 468.085938 7.25 463.660156 8.359375 C 459.230469 9.472656 454.828125 10.6875 450.460938 12.011719 C 446.089844 13.339844 441.757812 14.769531 437.457031 16.308594 C 433.160156 17.847656 428.898438 19.492188 424.679688 21.238281 C 420.460938 22.984375 416.289062 24.835938 412.160156 26.785156 C 408.035156 28.738281 403.957031 30.792969 399.929688 32.945312 C 395.902344 35.097656 391.933594 37.347656 388.015625 39.695312 C 384.097656 42.042969 380.242188 44.484375 376.445312 47.019531 C 372.648438 49.558594 368.917969 52.183594 365.25 54.90625 C 361.582031 57.625 357.984375 60.433594 354.453125 63.332031 C 350.925781 66.226562 347.46875 69.207031 344.085938 72.273438 C 340.703125 75.339844 337.394531 78.488281 334.167969 81.71875 C 330.9375 84.945312 327.789062 88.25 324.726562 91.636719 C 321.660156 95.019531 318.675781 98.476562 315.78125 102.003906 C 312.882812 105.535156 310.074219 109.132812 307.355469 112.800781 C 304.636719 116.46875 302.007812 120.199219 299.46875 123.996094 C 296.933594 127.792969 294.492188 131.648438 292.144531 135.566406 C 289.796875 139.480469 287.546875 143.453125 285.394531 147.480469 C 283.242188 151.507812 281.1875 155.585938 279.238281 159.710938 C 277.285156 163.839844 275.433594 168.011719 273.6875 172.230469 C 271.941406 176.449219 270.296875 180.707031 268.757812 185.007812 C 267.222656 189.308594 265.789062 193.640625 264.464844 198.011719 C 263.136719 202.378906 261.921875 206.78125 260.8125 211.207031 C 259.703125 215.636719 258.703125 220.089844 257.8125 224.570312 C 256.921875 229.046875 256.140625 233.546875 255.46875 238.0625 C 254.800781 242.578125 254.242188 247.109375 253.792969 251.652344 C 253.347656 256.199219 253.011719 260.75 252.785156 265.308594 C 252.5625 269.871094 252.449219 274.433594 252.449219 279 C 252.414062 289.332031 252.960938 299.628906 254.085938 309.898438 C 255.210938 320.167969 256.90625 330.34375 259.179688 340.421875 C 261.449219 350.5 264.28125 360.417969 267.671875 370.175781 C 271.058594 379.9375 274.984375 389.472656 279.449219 398.789062 L 279.449219 513 C 279.449219 513.589844 279.480469 514.175781 279.535156 514.765625 C 279.59375 515.351562 279.679688 515.933594 279.796875 516.511719 C 279.910156 517.089844 280.054688 517.660156 280.226562 518.226562 C 280.394531 518.789062 280.59375 519.34375 280.820312 519.886719 C 281.046875 520.433594 281.296875 520.964844 281.574219 521.484375 C 281.851562 522.003906 282.15625 522.511719 282.484375 523 C 282.8125 523.492188 283.160156 523.964844 283.535156 524.417969 C 283.910156 524.875 284.304688 525.3125 284.722656 525.726562 C 285.140625 526.144531 285.574219 526.539062 286.03125 526.914062 C 286.488281 527.289062 286.960938 527.640625 287.449219 527.964844 C 287.941406 528.292969 288.445312 528.597656 288.964844 528.875 C 289.484375 529.152344 290.015625 529.402344 290.5625 529.628906 C 291.105469 529.855469 291.660156 530.054688 292.226562 530.226562 C 292.789062 530.394531 293.359375 530.539062 293.9375 530.652344 C 294.515625 530.769531 295.097656 530.855469 295.6875 530.914062 C 296.273438 530.972656 296.859375 531 297.449219 531 L 411.570312 531 C 420.894531 535.46875 430.4375 539.394531 440.203125 542.789062 C 449.972656 546.179688 459.898438 549.007812 469.984375 551.28125 C 480.070312 553.550781 490.25 555.25 500.527344 556.375 C 510.804688 557.496094 521.113281 558.039062 531.449219 558 C 536.015625 558 540.578125 557.886719 545.136719 557.660156 C 549.695312 557.433594 554.246094 557.097656 558.789062 556.648438 C 563.332031 556.199219 567.863281 555.640625 572.378906 554.96875 C 576.894531 554.296875 581.390625 553.515625 585.867188 552.621094 C 590.34375 551.730469 594.796875 550.730469 599.222656 549.617188 C 603.652344 548.507812 608.050781 547.289062 612.417969 545.964844 C 616.785156 544.636719 621.117188 543.203125 625.417969 541.664062 C 629.714844 540.125 633.972656 538.484375 638.1875 536.734375 C 642.40625 534.988281 646.578125 533.136719 650.703125 531.183594 C 654.832031 529.230469 658.90625 527.179688 662.933594 525.023438 C 666.957031 522.871094 670.925781 520.621094 674.84375 518.273438 C 678.757812 515.925781 682.613281 513.484375 686.40625 510.945312 C 690.203125 508.410156 693.933594 505.78125 697.601562 503.0625 C 701.265625 500.339844 704.863281 497.53125 708.390625 494.636719 C 711.917969 491.738281 715.375 488.757812 718.757812 485.691406 C 722.136719 482.625 725.441406 479.476562 728.671875 476.25 C 731.898438 473.019531 735.042969 469.714844 738.109375 466.332031 C 741.175781 462.949219 744.15625 459.492188 747.050781 455.964844 C 749.945312 452.433594 752.753906 448.835938 755.472656 445.167969 C 758.191406 441.5 760.816406 437.769531 763.355469 433.972656 C 765.890625 430.179688 768.332031 426.320312 770.675781 422.40625 C 773.023438 418.492188 775.273438 414.519531 777.421875 410.492188 C 779.574219 406.46875 781.625 402.390625 783.578125 398.261719 C 785.53125 394.136719 787.378906 389.964844 789.125 385.746094 C 790.871094 381.527344 792.515625 377.269531 794.050781 372.972656 C 795.589844 368.675781 797.019531 364.339844 798.34375 359.972656 C 799.671875 355.605469 800.886719 351.207031 801.996094 346.777344 C 803.105469 342.347656 804.105469 337.894531 804.996094 333.417969 C 805.886719 328.941406 806.664062 324.445312 807.335938 319.929688 C 808.003906 315.414062 808.5625 310.882812 809.011719 306.339844 C 809.457031 301.796875 809.792969 297.246094 810.019531 292.6875 C 810.242188 288.128906 810.355469 283.566406 810.355469 279 C 810.355469 274.433594 810.242188 269.871094 810.019531 265.3125 C 809.792969 260.753906 809.457031 256.203125 809.011719 251.660156 C 808.5625 247.117188 808.003906 242.585938 807.335938 238.070312 C 806.664062 233.554688 805.886719 229.058594 804.996094 224.582031 C 804.105469 220.105469 803.105469 215.652344 801.996094 211.222656 C 800.886719 206.792969 799.671875 202.394531 798.34375 198.027344 C 797.019531 193.660156 795.589844 189.324219 794.050781 185.027344 C 792.515625 180.730469 790.871094 176.472656 789.125 172.253906 C 787.378906 168.035156 785.53125 163.863281 783.578125 159.738281 C 781.625 155.609375 779.574219 151.53125 777.425781 147.507812 C 775.273438 143.480469 773.023438 139.507812 770.675781 135.59375 C 768.332031 131.679688 765.890625 127.820312 763.355469 124.027344 C 760.816406 120.230469 758.191406 116.5 755.472656 112.832031 C 752.753906 109.164062 749.945312 105.566406 747.050781 102.035156 C 744.15625 98.507812 741.175781 95.050781 738.109375 91.667969 C 735.042969 88.285156 731.898438 84.980469 728.671875 81.75 C 725.441406 78.523438 722.136719 75.375 718.757812 72.308594 C 715.375 69.242188 711.917969 66.261719 708.390625 63.363281 C 704.863281 60.46875 701.265625 57.660156 697.601562 54.9375 C 693.933594 52.21875 690.203125 49.589844 686.40625 47.054688 C 682.613281 44.515625 678.757812 42.074219 674.84375 39.726562 C 670.925781 37.378906 666.957031 35.128906 662.933594 32.976562 C 658.90625 30.824219 654.832031 28.769531 650.703125 26.816406 C 646.578125 24.863281 642.40625 23.011719 638.1875 21.265625 C 633.972656 19.515625 629.714844 17.875 625.417969 16.335938 C 621.117188 14.796875 616.785156 13.363281 612.417969 12.035156 C 608.050781 10.710938 603.652344 9.492188 599.222656 8.382812 C 594.796875 7.269531 590.34375 6.269531 585.867188 5.378906 C 581.390625 4.484375 576.894531 3.703125 572.378906 3.03125 C 567.863281 2.363281 563.332031 1.800781 558.789062 1.351562 C 554.246094 0.902344 549.695312 0.566406 545.136719 0.339844 C 540.578125 0.113281 536.015625 0 531.449219 0 Z M 531.449219 522 C 522.113281 522.050781 512.808594 521.554688 503.53125 520.515625 C 494.253906 519.476562 485.070312 517.898438 475.976562 515.785156 C 466.882812 513.667969 457.945312 511.03125 449.160156 507.871094 C 440.375 504.714844 431.804688 501.050781 423.449219 496.890625 C 420.917969 495.667969 418.25 495.039062 415.441406 495 L 315.449219 495 L 315.449219 394.738281 C 315.414062 391.929688 314.78125 389.261719 313.558594 386.730469 C 309.40625 378.394531 305.753906 369.84375 302.601562 361.082031 C 299.445312 352.320312 296.8125 343.40625 294.699219 334.335938 C 292.582031 325.265625 291.003906 316.105469 289.960938 306.851562 C 288.914062 297.597656 288.410156 288.3125 288.449219 279 C 288.449219 275.023438 288.546875 271.046875 288.742188 267.078125 C 288.9375 263.105469 289.230469 259.140625 289.621094 255.183594 C 290.011719 251.222656 290.496094 247.277344 291.082031 243.34375 C 291.664062 239.410156 292.34375 235.492188 293.117188 231.59375 C 293.894531 227.691406 294.765625 223.8125 295.730469 219.957031 C 296.699219 216.097656 297.757812 212.265625 298.914062 208.460938 C 300.066406 204.65625 301.316406 200.878906 302.65625 197.136719 C 303.996094 193.390625 305.425781 189.683594 306.949219 186.007812 C 308.46875 182.332031 310.082031 178.699219 311.78125 175.105469 C 313.480469 171.507812 315.269531 167.957031 317.144531 164.449219 C 319.019531 160.941406 320.976562 157.484375 323.023438 154.074219 C 325.066406 150.660156 327.195312 147.304688 329.402344 143.996094 C 331.613281 140.691406 333.902344 137.4375 336.269531 134.246094 C 338.640625 131.050781 341.085938 127.917969 343.609375 124.84375 C 346.132812 121.769531 348.726562 118.757812 351.398438 115.8125 C 354.070312 112.863281 356.8125 109.984375 359.625 107.171875 C 362.433594 104.359375 365.316406 101.621094 368.261719 98.949219 C 371.207031 96.277344 374.21875 93.679688 377.292969 91.160156 C 380.367188 88.636719 383.5 86.191406 386.695312 83.820312 C 389.890625 81.453125 393.140625 79.164062 396.445312 76.953125 C 399.753906 74.742188 403.113281 72.617188 406.523438 70.570312 C 409.933594 68.527344 413.394531 66.566406 416.902344 64.691406 C 420.40625 62.820312 423.960938 61.03125 427.554688 59.332031 C 431.148438 57.628906 434.785156 56.019531 438.457031 54.496094 C 442.132812 52.976562 445.839844 51.542969 449.585938 50.203125 C 453.332031 48.863281 457.105469 47.617188 460.910156 46.464844 C 464.714844 45.308594 468.546875 44.25 472.40625 43.28125 C 476.261719 42.316406 480.140625 41.445312 484.042969 40.667969 C 487.945312 39.894531 491.859375 39.214844 495.792969 38.628906 C 499.726562 38.046875 503.675781 37.558594 507.632812 37.171875 C 511.589844 36.78125 515.554688 36.488281 519.527344 36.292969 C 523.5 36.097656 527.472656 36 531.449219 36 C 535.425781 36 539.402344 36.097656 543.375 36.292969 C 547.34375 36.488281 551.308594 36.78125 555.269531 37.171875 C 559.226562 37.558594 563.171875 38.046875 567.105469 38.628906 C 571.039062 39.214844 574.957031 39.894531 578.855469 40.667969 C 582.757812 41.445312 586.636719 42.316406 590.492188 43.28125 C 594.351562 44.25 598.183594 45.308594 601.988281 46.464844 C 605.792969 47.617188 609.570312 48.863281 613.3125 50.203125 C 617.058594 51.542969 620.769531 52.976562 624.441406 54.496094 C 628.117188 56.019531 631.75 57.628906 635.347656 59.332031 C 638.941406 61.03125 642.492188 62.820312 646 64.691406 C 649.507812 66.566406 652.964844 68.527344 656.375 70.570312 C 659.789062 72.617188 663.148438 74.742188 666.453125 76.953125 C 669.761719 79.164062 673.011719 81.453125 676.203125 83.820312 C 679.398438 86.191406 682.535156 88.636719 685.609375 91.160156 C 688.679688 93.679688 691.691406 96.277344 694.640625 98.949219 C 697.585938 101.621094 700.464844 104.359375 703.277344 107.171875 C 706.089844 109.984375 708.832031 112.863281 711.5 115.8125 C 714.171875 118.757812 716.769531 121.769531 719.292969 124.84375 C 721.816406 127.917969 724.261719 131.050781 726.628906 134.246094 C 729 137.4375 731.289062 140.691406 733.496094 143.996094 C 735.707031 147.304688 737.832031 150.660156 739.878906 154.074219 C 741.921875 157.484375 743.882812 160.941406 745.757812 164.449219 C 747.632812 167.957031 749.417969 171.507812 751.121094 175.105469 C 752.820312 178.699219 754.429688 182.332031 755.953125 186.007812 C 757.472656 189.683594 758.90625 193.390625 760.246094 197.136719 C 761.585938 200.878906 762.832031 204.65625 763.988281 208.460938 C 765.140625 212.265625 766.203125 216.097656 767.167969 219.957031 C 768.132812 223.8125 769.003906 227.691406 769.78125 231.59375 C 770.554688 235.492188 771.234375 239.410156 771.820312 243.34375 C 772.402344 247.277344 772.890625 251.222656 773.28125 255.183594 C 773.667969 259.140625 773.960938 263.105469 774.15625 267.078125 C 774.351562 271.046875 774.449219 275.023438 774.449219 279 C 774.449219 282.976562 774.351562 286.953125 774.15625 290.921875 C 773.960938 294.894531 773.667969 298.859375 773.28125 302.816406 C 772.890625 306.777344 772.402344 310.722656 771.820312 314.65625 C 771.238281 318.589844 770.558594 322.507812 769.78125 326.40625 C 769.003906 330.308594 768.132812 334.1875 767.167969 338.042969 C 766.203125 341.902344 765.140625 345.734375 763.988281 349.539062 C 762.832031 353.34375 761.585938 357.121094 760.246094 360.863281 C 758.90625 364.609375 757.472656 368.316406 755.953125 371.992188 C 754.429688 375.667969 752.820312 379.300781 751.121094 382.894531 C 749.417969 386.492188 747.632812 390.042969 745.757812 393.550781 C 743.882812 397.058594 741.921875 400.515625 739.878906 403.925781 C 737.832031 407.339844 735.707031 410.695312 733.496094 414.003906 C 731.289062 417.308594 729 420.5625 726.628906 423.753906 C 724.261719 426.949219 721.816406 430.082031 719.292969 433.15625 C 716.769531 436.230469 714.171875 439.242188 711.5 442.1875 C 708.832031 445.136719 706.089844 448.015625 703.277344 450.828125 C 700.464844 453.640625 697.585938 456.378906 694.640625 459.050781 C 691.691406 461.722656 688.679688 464.320312 685.609375 466.839844 C 682.535156 469.363281 679.398438 471.808594 676.203125 474.179688 C 673.011719 476.546875 669.761719 478.835938 666.453125 481.046875 C 663.148438 483.257812 659.789062 485.382812 656.375 487.429688 C 652.964844 489.472656 649.507812 491.433594 646 493.308594 C 642.492188 495.179688 638.941406 496.96875 635.347656 498.667969 C 631.75 500.371094 628.117188 501.980469 624.441406 503.503906 C 620.769531 505.023438 617.058594 506.457031 613.3125 507.796875 C 609.570312 509.136719 605.792969 510.382812 601.988281 511.535156 C 598.183594 512.691406 594.351562 513.75 590.492188 514.71875 C 586.636719 515.683594 582.757812 516.554688 578.855469 517.332031 C 574.957031 518.105469 571.039062 518.785156 567.105469 519.371094 C 563.171875 519.953125 559.226562 520.441406 555.269531 520.828125 C 551.308594 521.21875 547.34375 521.511719 543.375 521.707031 C 539.402344 521.902344 535.425781 522 531.449219 522 Z M 531.449219 522 " fill-opacity="1" fill-rule="nonzero"/><path fill="#0b4b92" d="M 549.449219 127.710938 C 547.820312 127.378906 546.183594 127.089844 544.539062 126.847656 C 542.894531 126.605469 541.242188 126.410156 539.585938 126.261719 C 537.929688 126.109375 536.269531 126.003906 534.609375 125.945312 C 532.945312 125.890625 531.285156 125.875 529.621094 125.910156 C 527.960938 125.945312 526.300781 126.023438 524.640625 126.148438 C 522.984375 126.277344 521.328125 126.445312 519.679688 126.664062 C 518.03125 126.882812 516.390625 127.144531 514.757812 127.453125 C 513.121094 127.761719 511.496094 128.117188 509.882812 128.515625 C 508.269531 128.914062 506.667969 129.355469 505.078125 129.84375 C 503.488281 130.328125 501.910156 130.859375 500.351562 131.433594 C 498.789062 132.011719 497.246094 132.628906 495.722656 133.289062 C 494.195312 133.949219 492.6875 134.648438 491.199219 135.394531 C 489.714844 136.136719 488.246094 136.921875 486.804688 137.746094 C 485.359375 138.570312 483.941406 139.4375 482.542969 140.339844 C 481.148438 141.242188 479.777344 142.183594 478.433594 143.164062 C 477.089844 144.144531 475.773438 145.160156 474.488281 146.210938 C 473.199219 147.265625 471.941406 148.351562 470.714844 149.472656 C 469.488281 150.597656 468.292969 151.75 467.128906 152.941406 C 465.964844 154.128906 464.835938 155.347656 463.742188 156.601562 C 462.644531 157.851562 461.585938 159.132812 460.5625 160.441406 C 459.535156 161.75 458.550781 163.089844 457.597656 164.453125 C 456.648438 165.816406 455.734375 167.207031 454.863281 168.621094 C 453.988281 170.039062 453.15625 171.476562 452.363281 172.9375 C 451.570312 174.398438 450.816406 175.878906 450.105469 177.382812 C 449.394531 178.886719 448.722656 180.40625 448.097656 181.949219 C 447.46875 183.488281 446.886719 185.042969 446.34375 186.617188 C 445.804688 188.191406 445.304688 189.777344 444.851562 191.375 C 444.398438 192.976562 443.992188 194.585938 443.628906 196.210938 C 443.265625 197.832031 442.945312 199.464844 442.671875 201.105469 C 442.398438 202.746094 442.171875 204.390625 441.992188 206.042969 C 441.808594 207.699219 441.671875 209.355469 441.582031 211.015625 C 441.492188 212.675781 441.449219 214.335938 441.449219 216 C 441.449219 216.589844 441.480469 217.175781 441.535156 217.765625 C 441.59375 218.351562 441.679688 218.933594 441.796875 219.511719 C 441.910156 220.089844 442.054688 220.660156 442.226562 221.226562 C 442.394531 221.789062 442.59375 222.34375 442.820312 222.886719 C 443.046875 223.433594 443.296875 223.964844 443.574219 224.484375 C 443.851562 225.003906 444.15625 225.511719 444.484375 226 C 444.8125 226.492188 445.160156 226.964844 445.535156 227.417969 C 445.910156 227.875 446.304688 228.3125 446.722656 228.726562 C 447.140625 229.144531 447.574219 229.539062 448.03125 229.914062 C 448.488281 230.289062 448.960938 230.640625 449.449219 230.964844 C 449.941406 231.292969 450.445312 231.597656 450.964844 231.875 C 451.484375 232.152344 452.015625 232.402344 452.5625 232.628906 C 453.105469 232.855469 453.660156 233.054688 454.226562 233.226562 C 454.789062 233.394531 455.359375 233.539062 455.9375 233.652344 C 456.515625 233.769531 457.097656 233.855469 457.6875 233.914062 C 458.273438 233.972656 458.859375 234 459.449219 234 C 460.039062 234 460.628906 233.972656 461.214844 233.914062 C 461.800781 233.855469 462.382812 233.769531 462.960938 233.652344 C 463.539062 233.539062 464.109375 233.394531 464.675781 233.226562 C 465.238281 233.054688 465.792969 232.855469 466.339844 232.628906 C 466.882812 232.402344 467.414062 232.152344 467.933594 231.875 C 468.453125 231.597656 468.960938 231.292969 469.449219 230.964844 C 469.941406 230.640625 470.414062 230.289062 470.867188 229.914062 C 471.324219 229.539062 471.761719 229.144531 472.179688 228.726562 C 472.59375 228.3125 472.988281 227.875 473.363281 227.417969 C 473.738281 226.964844 474.089844 226.492188 474.417969 226 C 474.742188 225.511719 475.046875 225.003906 475.324219 224.484375 C 475.601562 223.964844 475.855469 223.433594 476.078125 222.886719 C 476.304688 222.34375 476.503906 221.789062 476.675781 221.226562 C 476.847656 220.660156 476.988281 220.089844 477.105469 219.511719 C 477.21875 218.933594 477.304688 218.351562 477.363281 217.765625 C 477.421875 217.175781 477.449219 216.589844 477.449219 216 C 477.453125 214.828125 477.492188 213.65625 477.570312 212.484375 C 477.644531 211.3125 477.761719 210.144531 477.914062 208.984375 C 478.070312 207.820312 478.261719 206.664062 478.492188 205.511719 C 478.71875 204.363281 478.984375 203.21875 479.289062 202.085938 C 479.59375 200.953125 479.933594 199.832031 480.308594 198.71875 C 480.6875 197.609375 481.101562 196.511719 481.546875 195.425781 C 481.996094 194.34375 482.480469 193.273438 482.996094 192.222656 C 483.515625 191.167969 484.066406 190.132812 484.652344 189.117188 C 485.238281 188.101562 485.855469 187.101562 486.507812 186.125 C 487.15625 185.148438 487.839844 184.195312 488.550781 183.265625 C 489.265625 182.332031 490.007812 181.425781 490.777344 180.539062 C 491.550781 179.65625 492.347656 178.800781 493.175781 177.96875 C 494.003906 177.136719 494.859375 176.332031 495.738281 175.554688 C 496.617188 174.78125 497.523438 174.035156 498.453125 173.316406 C 499.378906 172.601562 500.332031 171.914062 501.304688 171.257812 C 502.277344 170.605469 503.273438 169.980469 504.285156 169.390625 C 505.300781 168.800781 506.332031 168.246094 507.382812 167.722656 C 508.433594 167.199219 509.5 166.710938 510.582031 166.257812 C 511.664062 165.804688 512.757812 165.386719 513.867188 165.003906 C 514.976562 164.621094 516.097656 164.277344 517.230469 163.96875 C 518.363281 163.660156 519.503906 163.386719 520.652344 163.152344 C 521.804688 162.917969 522.957031 162.71875 524.121094 162.5625 C 525.285156 162.402344 526.449219 162.28125 527.621094 162.199219 C 528.789062 162.113281 529.960938 162.070312 531.136719 162.0625 C 532.308594 162.054688 533.480469 162.085938 534.652344 162.15625 C 535.824219 162.226562 536.992188 162.335938 538.15625 162.480469 C 539.320312 162.625 540.476562 162.808594 541.628906 163.03125 C 542.78125 163.25 543.925781 163.511719 545.0625 163.804688 C 546.199219 164.101562 547.320312 164.433594 548.4375 164.804688 C 549.550781 165.171875 550.648438 165.578125 551.738281 166.019531 C 552.824219 166.457031 553.894531 166.933594 554.953125 167.445312 C 556.007812 167.957031 557.046875 168.5 558.070312 169.078125 C 559.089844 169.65625 560.089844 170.269531 561.070312 170.910156 C 562.050781 171.554688 563.011719 172.230469 563.949219 172.9375 C 564.886719 173.640625 565.796875 174.378906 566.6875 175.144531 C 567.578125 175.910156 568.441406 176.703125 569.277344 177.523438 C 570.113281 178.347656 570.925781 179.195312 571.707031 180.070312 C 572.488281 180.945312 573.242188 181.84375 573.964844 182.765625 C 574.6875 183.691406 575.378906 184.636719 576.042969 185.605469 C 576.703125 186.574219 577.332031 187.566406 577.929688 188.574219 C 578.527344 189.585938 579.089844 190.613281 579.621094 191.660156 C 580.152344 192.707031 580.648438 193.769531 581.109375 194.847656 C 581.570312 195.925781 581.996094 197.019531 582.382812 198.125 C 582.773438 199.234375 583.128906 200.351562 583.445312 201.480469 C 583.761719 202.609375 584.039062 203.75 584.28125 204.898438 C 584.527344 206.046875 584.730469 207.199219 584.898438 208.359375 C 585.066406 209.523438 585.195312 210.6875 585.285156 211.859375 C 585.378906 213.027344 585.429688 214.199219 585.445312 215.371094 C 585.460938 216.546875 585.4375 217.71875 585.375 218.890625 C 585.3125 220.0625 585.214844 221.230469 585.078125 222.394531 C 584.941406 223.558594 584.765625 224.71875 584.550781 225.875 C 584.335938 227.027344 584.085938 228.171875 583.800781 229.308594 C 583.511719 230.449219 583.1875 231.574219 582.824219 232.691406 C 582.464844 233.808594 582.066406 234.910156 581.632812 236 C 581.199219 237.089844 580.734375 238.167969 580.230469 239.226562 C 579.726562 240.285156 579.1875 241.328125 578.617188 242.351562 C 578.046875 243.378906 577.441406 244.382812 576.804688 245.367188 C 576.167969 246.355469 575.5 247.316406 574.800781 248.257812 C 574.101562 249.203125 573.371094 250.121094 572.613281 251.015625 C 571.851562 251.910156 571.066406 252.777344 570.25 253.621094 C 569.433594 254.464844 568.589844 255.277344 567.722656 256.066406 C 566.851562 256.855469 565.957031 257.613281 565.039062 258.34375 C 564.121094 259.074219 563.179688 259.773438 562.214844 260.441406 C 561.25 261.109375 560.265625 261.746094 559.261719 262.351562 C 555.796875 264.375 552.476562 266.613281 549.304688 269.070312 C 546.128906 271.527344 543.128906 274.175781 540.300781 277.023438 C 537.476562 279.871094 534.84375 282.886719 532.410156 286.078125 C 529.972656 289.265625 527.757812 292.601562 525.757812 296.078125 C 523.757812 299.558594 521.988281 303.152344 520.457031 306.859375 C 518.925781 310.566406 517.640625 314.359375 516.601562 318.234375 C 515.5625 322.109375 514.777344 326.039062 514.25 330.015625 C 513.722656 333.992188 513.457031 337.988281 513.449219 342 C 513.449219 342.589844 513.480469 343.175781 513.535156 343.765625 C 513.59375 344.351562 513.679688 344.933594 513.796875 345.511719 C 513.910156 346.089844 514.054688 346.660156 514.226562 347.226562 C 514.394531 347.789062 514.59375 348.34375 514.820312 348.886719 C 515.046875 349.433594 515.296875 349.964844 515.574219 350.484375 C 515.851562 351.003906 516.15625 351.511719 516.484375 352 C 516.8125 352.492188 517.160156 352.964844 517.535156 353.417969 C 517.910156 353.875 518.304688 354.3125 518.722656 354.726562 C 519.140625 355.144531 519.574219 355.539062 520.03125 355.914062 C 520.488281 356.289062 520.960938 356.640625 521.449219 356.964844 C 521.941406 357.292969 522.445312 357.597656 522.964844 357.875 C 523.484375 358.152344 524.015625 358.402344 524.5625 358.628906 C 525.105469 358.855469 525.660156 359.054688 526.226562 359.226562 C 526.789062 359.394531 527.359375 359.539062 527.9375 359.652344 C 528.515625 359.769531 529.097656 359.855469 529.6875 359.914062 C 530.273438 359.972656 530.859375 360 531.449219 360 C 532.039062 360 532.628906 359.972656 533.214844 359.914062 C 533.800781 359.855469 534.382812 359.769531 534.960938 359.652344 C 535.539062 359.539062 536.109375 359.394531 536.675781 359.226562 C 537.238281 359.054688 537.792969 358.855469 538.339844 358.628906 C 538.882812 358.402344 539.414062 358.152344 539.933594 357.875 C 540.453125 357.597656 540.960938 357.292969 541.449219 356.964844 C 541.941406 356.640625 542.414062 356.289062 542.867188 355.914062 C 543.324219 355.539062 543.761719 355.144531 544.179688 354.726562 C 544.59375 354.3125 544.988281 353.875 545.363281 353.417969 C 545.738281 352.964844 546.089844 352.492188 546.417969 352 C 546.742188 351.511719 547.046875 351.003906 547.324219 350.484375 C 547.601562 349.964844 547.855469 349.433594 548.078125 348.886719 C 548.304688 348.34375 548.503906 347.789062 548.675781 347.226562 C 548.847656 346.660156 548.988281 346.089844 549.105469 345.511719 C 549.21875 344.933594 549.304688 344.351562 549.363281 343.765625 C 549.421875 343.175781 549.449219 342.589844 549.449219 342 C 549.46875 339.535156 549.648438 337.078125 549.984375 334.636719 C 550.320312 332.195312 550.816406 329.78125 551.464844 327.402344 C 552.117188 325.023438 552.917969 322.699219 553.867188 320.421875 C 554.820312 318.148438 555.914062 315.941406 557.152344 313.808594 C 558.390625 311.675781 559.757812 309.632812 561.261719 307.675781 C 562.765625 305.722656 564.386719 303.871094 566.128906 302.125 C 567.871094 300.378906 569.71875 298.753906 571.671875 297.25 C 573.625 295.742188 575.667969 294.371094 577.800781 293.128906 C 579.734375 291.972656 581.621094 290.746094 583.460938 289.445312 C 585.300781 288.144531 587.089844 286.78125 588.828125 285.347656 C 590.566406 283.914062 592.25 282.417969 593.875 280.855469 C 595.5 279.296875 597.0625 277.679688 598.570312 276 C 600.074219 274.324219 601.511719 272.59375 602.886719 270.808594 C 604.261719 269.019531 605.566406 267.1875 606.800781 265.304688 C 608.039062 263.421875 609.203125 261.492188 610.292969 259.523438 C 611.386719 257.550781 612.402344 255.542969 613.339844 253.496094 C 614.28125 251.449219 615.144531 249.367188 615.929688 247.257812 C 616.714844 245.144531 617.417969 243.007812 618.042969 240.84375 C 618.667969 238.675781 619.207031 236.492188 619.667969 234.285156 C 620.128906 232.082031 620.503906 229.863281 620.796875 227.628906 C 621.089844 225.394531 621.300781 223.152344 621.425781 220.902344 C 621.550781 218.652344 621.589844 216.402344 621.546875 214.148438 C 621.503906 211.898438 621.375 209.648438 621.160156 207.40625 C 620.949219 205.164062 620.652344 202.933594 620.269531 200.710938 C 619.890625 198.492188 619.425781 196.289062 618.878906 194.101562 C 618.335938 191.917969 617.707031 189.753906 617 187.617188 C 616.289062 185.476562 615.503906 183.367188 614.636719 181.289062 C 613.769531 179.210938 612.824219 177.164062 611.804688 175.15625 C 610.785156 173.148438 609.691406 171.179688 608.523438 169.253906 C 607.355469 167.328125 606.117188 165.449219 604.808594 163.613281 C 603.496094 161.78125 602.121094 160 600.679688 158.269531 C 599.234375 156.539062 597.730469 154.863281 596.160156 153.246094 C 594.59375 151.628906 592.964844 150.074219 591.28125 148.578125 C 589.59375 147.085938 587.855469 145.65625 586.0625 144.292969 C 584.269531 142.925781 582.425781 141.632812 580.539062 140.40625 C 578.648438 139.179688 576.714844 138.027344 574.738281 136.945312 C 572.761719 135.867188 570.746094 134.859375 568.691406 133.929688 C 566.640625 133 564.558594 132.148438 562.441406 131.378906 C 560.324219 130.605469 558.183594 129.910156 556.015625 129.300781 C 553.847656 128.6875 551.65625 128.15625 549.449219 127.710938 Z M 549.449219 127.710938 " fill-opacity="1" fill-rule="nonzero"/><path fill="#0b4b92" d="M 549.449219 414 C 549.449219 414.589844 549.421875 415.175781 549.363281 415.765625 C 549.304688 416.351562 549.21875 416.933594 549.105469 417.511719 C 548.988281 418.089844 548.847656 418.660156 548.675781 419.226562 C 548.503906 419.789062 548.304688 420.34375 548.078125 420.886719 C 547.855469 421.433594 547.601562 421.964844 547.324219 422.484375 C 547.046875 423.003906 546.742188 423.511719 546.417969 424 C 546.089844 424.492188 545.738281 424.964844 545.363281 425.417969 C 544.988281 425.875 544.59375 426.3125 544.179688 426.726562 C 543.761719 427.144531 543.324219 427.539062 542.867188 427.914062 C 542.414062 428.289062 541.941406 428.640625 541.449219 428.964844 C 540.960938 429.292969 540.453125 429.597656 539.933594 429.875 C 539.414062 430.152344 538.882812 430.402344 538.339844 430.628906 C 537.792969 430.855469 537.238281 431.054688 536.675781 431.226562 C 536.109375 431.394531 535.539062 431.539062 534.960938 431.652344 C 534.382812 431.769531 533.800781 431.855469 533.214844 431.914062 C 532.628906 431.972656 532.039062 432 531.449219 432 C 530.859375 432 530.273438 431.972656 529.6875 431.914062 C 529.097656 431.855469 528.515625 431.769531 527.9375 431.652344 C 527.359375 431.539062 526.789062 431.394531 526.226562 431.226562 C 525.660156 431.054688 525.105469 430.855469 524.5625 430.628906 C 524.015625 430.402344 523.484375 430.152344 522.964844 429.875 C 522.445312 429.597656 521.941406 429.292969 521.449219 428.964844 C 520.960938 428.640625 520.488281 428.289062 520.03125 427.914062 C 519.574219 427.539062 519.140625 427.144531 518.722656 426.726562 C 518.304688 426.3125 517.910156 425.875 517.535156 425.417969 C 517.160156 424.964844 516.8125 424.492188 516.484375 424 C 516.15625 423.511719 515.851562 423.003906 515.574219 422.484375 C 515.296875 421.964844 515.046875 421.433594 514.820312 420.886719 C 514.59375 420.34375 514.394531 419.789062 514.226562 419.226562 C 514.054688 418.660156 513.910156 418.089844 513.796875 417.511719 C 513.679688 416.933594 513.59375 416.351562 513.535156 415.765625 C 513.480469 415.175781 513.449219 414.589844 513.449219 414 C 513.449219 413.410156 513.480469 412.824219 513.535156 412.234375 C 513.59375 411.648438 513.679688 411.066406 513.796875 410.488281 C 513.910156 409.910156 514.054688 409.339844 514.226562 408.773438 C 514.394531 408.210938 514.59375 407.65625 514.820312 407.113281 C 515.046875 406.566406 515.296875 406.035156 515.574219 405.515625 C 515.851562 404.996094 516.15625 404.488281 516.484375 404 C 516.8125 403.507812 517.160156 403.035156 517.535156 402.582031 C 517.910156 402.125 518.304688 401.6875 518.722656 401.273438 C 519.140625 400.855469 519.574219 400.460938 520.03125 400.085938 C 520.488281 399.710938 520.960938 399.359375 521.449219 399.035156 C 521.941406 398.707031 522.445312 398.402344 522.964844 398.125 C 523.484375 397.847656 524.015625 397.597656 524.5625 397.371094 C 525.105469 397.144531 525.660156 396.945312 526.226562 396.773438 C 526.789062 396.605469 527.359375 396.460938 527.9375 396.347656 C 528.515625 396.230469 529.097656 396.144531 529.6875 396.085938 C 530.273438 396.027344 530.859375 396 531.449219 396 C 532.039062 396 532.628906 396.027344 533.214844 396.085938 C 533.800781 396.144531 534.382812 396.230469 534.960938 396.347656 C 535.539062 396.460938 536.109375 396.605469 536.675781 396.773438 C 537.238281 396.945312 537.792969 397.144531 538.339844 397.371094 C 538.882812 397.597656 539.414062 397.847656 539.933594 398.125 C 540.453125 398.402344 540.960938 398.707031 541.449219 399.035156 C 541.941406 399.359375 542.414062 399.710938 542.867188 400.085938 C 543.324219 400.460938 543.761719 400.855469 544.179688 401.273438 C 544.59375 401.6875 544.988281 402.125 545.363281 402.582031 C 545.738281 403.035156 546.089844 403.507812 546.417969 404 C 546.742188 404.488281 547.046875 404.996094 547.324219 405.515625 C 547.601562 406.035156 547.855469 406.566406 548.078125 407.113281 C 548.304688 407.65625 548.503906 408.210938 548.675781 408.773438 C 548.847656 409.339844 548.988281 409.910156 549.105469 410.488281 C 549.21875 411.066406 549.304688 411.648438 549.363281 412.234375 C 549.421875 412.824219 549.449219 413.410156 549.449219 414 Z M 549.449219 414 " fill-opacity="1" fill-rule="nonzero"/></svg>