<svg xmlns="http://www.w3.org/2000/svg" xmlns:xlink="http://www.w3.org/1999/xlink" width="1080" zoomAndPan="magnify" viewBox="0 0 810 809.999993" height="1080" preserveAspectRatio="xMidYMid meet" version="1.0"><defs><clipPath id="306fdae040"><path d="M 664.765625 588.667969 L 694.765625 588.667969 L 694.765625 618.667969 L 664.765625 618.667969 Z M 664.765625 588.667969 " clip-rule="nonzero"/></clipPath></defs><g clip-path="url(#306fdae040)"><path fill="#000000" d="M 684.160156 608.453125 L 683.890625 608.453125 L 683.890625 603.257812 C 683.890625 603.019531 683.699219 602.832031 683.464844 602.832031 C 683.230469 602.832031 683.039062 603.019531 683.039062 603.257812 L 683.039062 617.808594 L 680.195312 617.808594 L 680.195312 608.9375 C 680.195312 608.703125 680.003906 608.511719 679.769531 608.511719 C 679.535156 608.511719 679.34375 608.703125 679.34375 608.9375 L 679.34375 617.808594 L 676.5 617.808594 L 676.5 603.210938 C 676.5 602.976562 676.3125 602.789062 676.074219 602.789062 C 675.839844 602.789062 675.652344 602.976562 675.652344 603.210938 L 675.652344 608.453125 L 675.378906 608.453125 C 674.632812 608.453125 674.023438 607.84375 674.023438 607.09375 L 674.023438 601.820312 L 675.472656 601.808594 C 675.707031 601.804688 675.894531 601.613281 675.894531 601.378906 C 675.890625 601.144531 675.703125 600.957031 675.46875 600.957031 C 675.46875 600.957031 675.464844 600.957031 675.464844 600.957031 L 674.023438 600.96875 L 674.023438 598.570312 C 674.023438 597.820312 674.632812 597.210938 675.378906 597.210938 L 684.160156 597.210938 C 684.910156 597.210938 685.519531 597.820312 685.519531 598.570312 L 685.519531 601 L 684.066406 601.019531 C 683.832031 601.023438 683.644531 601.214844 683.648438 601.449219 C 683.648438 601.683594 683.839844 601.871094 684.070312 601.871094 C 684.074219 601.871094 684.074219 601.871094 684.078125 601.871094 L 685.519531 601.851562 L 685.519531 607.09375 C 685.519531 607.84375 684.910156 608.453125 684.160156 608.453125 Z M 680.03125 588.675781 L 679.507812 588.675781 C 677.796875 588.8125 676.441406 590.246094 676.441406 591.996094 C 676.441406 593.832031 677.933594 595.324219 679.769531 595.324219 C 681.605469 595.324219 683.097656 593.832031 683.097656 591.996094 C 683.097656 590.246094 681.746094 588.8125 680.03125 588.675781 Z M 694.34375 600.957031 C 694.339844 600.957031 694.339844 600.957031 694.339844 600.957031 L 692.285156 600.976562 C 692.164062 600.980469 692.046875 601.03125 691.96875 601.125 L 691.230469 601.972656 L 689.738281 597.75 C 689.675781 597.574219 689.511719 597.460938 689.328125 597.464844 C 689.144531 597.46875 688.984375 597.589844 688.929688 597.765625 L 687.179688 603.464844 L 686.4375 601.28125 C 686.421875 601.234375 686.398438 601.195312 686.371094 601.15625 L 686.371094 598.570312 C 686.371094 597.351562 685.378906 596.363281 684.160156 596.363281 L 675.378906 596.363281 C 674.164062 596.363281 673.171875 597.351562 673.171875 598.570312 L 673.171875 600.976562 L 672.84375 600.976562 C 672.722656 600.980469 672.605469 601.03125 672.523438 601.125 L 671.785156 601.972656 L 670.292969 597.75 C 670.230469 597.574219 670.066406 597.460938 669.882812 597.464844 C 669.699219 597.46875 669.539062 597.589844 669.488281 597.765625 L 667.738281 603.464844 L 666.992188 601.28125 C 666.933594 601.105469 666.765625 600.992188 666.582031 600.996094 L 665.191406 601.019531 C 664.957031 601.023438 664.769531 601.21875 664.773438 601.453125 C 664.777344 601.6875 664.96875 601.871094 665.207031 601.871094 L 666.289062 601.851562 L 667.355469 604.980469 C 667.414062 605.152344 667.578125 605.269531 667.757812 605.269531 C 667.761719 605.269531 667.761719 605.269531 667.765625 605.269531 C 667.949219 605.265625 668.109375 605.144531 668.164062 604.96875 L 669.921875 599.246094 L 671.226562 602.941406 C 671.277344 603.082031 671.402344 603.1875 671.550781 603.21875 C 671.699219 603.246094 671.851562 603.191406 671.949219 603.078125 L 673.039062 601.828125 L 673.171875 601.824219 L 673.171875 607.09375 C 673.171875 608.3125 674.164062 609.304688 675.378906 609.304688 L 675.652344 609.304688 L 675.652344 618.234375 C 675.652344 618.46875 675.839844 618.660156 676.074219 618.660156 L 683.464844 618.660156 C 683.699219 618.660156 683.890625 618.46875 683.890625 618.234375 L 683.890625 609.304688 L 684.160156 609.304688 C 685.378906 609.304688 686.371094 608.3125 686.371094 607.09375 L 686.371094 603.71875 L 686.800781 604.980469 C 686.859375 605.15625 687.019531 605.269531 687.203125 605.269531 C 687.203125 605.269531 687.207031 605.269531 687.207031 605.269531 C 687.390625 605.265625 687.554688 605.144531 687.609375 604.96875 L 689.363281 599.246094 L 690.671875 602.941406 C 690.722656 603.082031 690.84375 603.1875 690.992188 603.21875 C 691.140625 603.246094 691.292969 603.191406 691.394531 603.078125 L 692.484375 601.828125 L 694.347656 601.808594 C 694.582031 601.804688 694.769531 601.613281 694.769531 601.378906 C 694.765625 601.144531 694.574219 600.957031 694.34375 600.957031 Z M 680.007812 602.773438 C 680.839844 602.023438 681.773438 601.136719 681.773438 600.410156 C 681.773438 600.105469 681.472656 599.859375 681.101562 599.859375 C 680.800781 599.859375 680.648438 599.945312 680.464844 600.226562 C 680.367188 600.382812 680.195312 600.476562 680.007812 600.476562 C 679.820312 600.476562 679.648438 600.382812 679.550781 600.226562 C 679.367188 599.945312 679.214844 599.859375 678.914062 599.859375 C 678.542969 599.859375 678.242188 600.105469 678.242188 600.410156 C 678.242188 601.136719 679.175781 602.023438 680.007812 602.773438 Z M 681.101562 599.007812 C 680.648438 599.007812 680.300781 599.144531 680.007812 599.441406 C 679.714844 599.144531 679.367188 599.007812 678.914062 599.007812 C 678.074219 599.007812 677.394531 599.636719 677.394531 600.410156 C 677.394531 601.578125 678.589844 602.644531 679.644531 603.585938 C 679.746094 603.679688 679.878906 603.726562 680.007812 603.726562 C 680.136719 603.726562 680.269531 603.679688 680.371094 603.585938 C 681.425781 602.644531 682.621094 601.578125 682.621094 600.410156 C 682.621094 599.636719 681.941406 599.007812 681.101562 599.007812 Z M 679.769531 589.515625 C 681.136719 589.515625 682.25 590.628906 682.25 591.996094 C 682.25 593.363281 681.136719 594.472656 679.769531 594.472656 C 678.402344 594.472656 677.292969 593.363281 677.292969 591.996094 C 677.292969 590.628906 678.402344 589.515625 679.769531 589.515625 Z M 679.769531 589.515625 " fill-opacity="1" fill-rule="evenodd"/></g><path fill="#0b4b92" d="M 414.222656 60.117188 C 490.605469 60.117188 596.140625 70.164062 629.996094 76.933594 C 630.105469 76.949219 630.21875 76.980469 630.328125 76.996094 C 676.476562 85.953125 723.8125 131.152344 733.886719 175.828125 C 744.679688 227.953125 749.757812 279.910156 749.867188 339.3125 C 749.757812 398.703125 744.679688 450.671875 733.886719 502.800781 C 723.8125 547.460938 676.476562 592.675781 630.328125 601.628906 C 630.21875 601.648438 630.105469 601.679688 629.996094 601.695312 C 609.746094 605.742188 567.191406 610.554688 521.546875 613.953125 C 502.644531 615.363281 485.492188 625.613281 475.304688 641.609375 C 469.847656 650.167969 464.027344 659.152344 457.980469 668.3125 C 437.90625 698.71875 420.109375 724 405 743.617188 C 389.890625 724 372.09375 698.71875 352.019531 668.3125 C 345.972656 659.152344 340.136719 650.167969 334.695312 641.609375 C 324.507812 625.613281 307.371094 615.363281 288.453125 613.953125 C 242.824219 610.554688 200.253906 605.742188 180.003906 601.695312 C 179.894531 601.679688 179.78125 601.648438 179.671875 601.628906 C 133.523438 592.675781 86.1875 547.476562 76.113281 502.800781 C 65.320312 450.671875 60.242188 398.71875 60.132812 339.3125 C 60.242188 279.910156 65.320312 227.953125 76.113281 175.828125 C 86.1875 131.167969 133.523438 85.96875 179.671875 77.011719 C 179.78125 76.996094 179.894531 76.964844 180.003906 76.949219 C 213.875 70.179688 319.394531 60.132812 395.777344 60.132812 C 398.6875 60.132812 401.535156 60.132812 404.335938 60.179688 C 404.558594 60.179688 404.777344 60.179688 405 60.179688 C 405.222656 60.179688 405.441406 60.179688 405.664062 60.179688 C 408.464844 60.148438 411.3125 60.132812 414.222656 60.132812 M 395.777344 0 C 318.445312 0 208.605469 9.902344 168.21875 17.972656 C 99.242188 31.355469 32.558594 94.367188 17.324219 163.15625 C 8.652344 204.921875 0.125 261.746094 0 339.3125 C 0.125 416.882812 8.652344 473.691406 17.324219 515.457031 C 32.558594 584.246094 99.242188 647.257812 168.21875 660.640625 C 190.902344 665.179688 235.53125 670.289062 283.972656 673.898438 C 289.464844 682.519531 295.414062 691.695312 301.851562 701.425781 C 327.558594 740.359375 347.238281 767.492188 362.144531 786.394531 C 374.546875 802.121094 389.78125 809.984375 405 809.984375 C 420.21875 809.984375 435.453125 802.121094 447.855469 786.394531 C 462.761719 767.492188 482.425781 740.359375 508.148438 701.425781 C 514.585938 691.679688 520.519531 682.519531 526.023438 673.898438 C 574.484375 670.289062 619.097656 665.179688 641.796875 660.640625 C 710.773438 647.257812 777.457031 584.242188 792.691406 515.457031 C 801.363281 473.691406 809.890625 416.882812 810.015625 339.3125 C 809.890625 261.746094 801.363281 204.9375 792.691406 163.171875 C 777.457031 94.382812 710.773438 31.371094 641.796875 17.988281 C 601.394531 9.902344 491.554688 0 414.222656 0 C 411.089844 0 408.023438 0.015625 405 0.046875 C 401.996094 0.015625 398.910156 0 395.777344 0 Z M 395.777344 0 " fill-opacity="1" fill-rule="nonzero"/><path fill="#0b4b92" d="M 449.738281 575.273438 C 448.03125 584.910156 439.296875 593.640625 429.664062 595.351562 C 423.824219 596.316406 415.867188 597.234375 405 597.25 C 394.148438 597.25 386.191406 596.332031 380.335938 595.351562 C 370.703125 593.640625 361.96875 584.910156 360.261719 575.273438 C 359.296875 569.4375 358.378906 561.480469 358.363281 550.609375 C 358.363281 539.757812 359.28125 531.800781 360.261719 525.945312 C 361.96875 516.3125 370.703125 507.578125 380.335938 505.871094 C 386.175781 504.90625 394.132812 503.988281 405 503.972656 C 415.851562 503.972656 423.808594 504.890625 429.664062 505.871094 C 439.296875 507.578125 448.03125 516.3125 449.738281 525.945312 C 450.703125 531.785156 451.621094 539.742188 451.636719 550.609375 C 451.636719 561.460938 450.722656 569.421875 449.738281 575.273438 Z M 449.738281 575.273438 " fill-opacity="1" fill-rule="nonzero"/><path fill="#0b4b92" d="M 403.355469 456.257812 C 388.230469 456.257812 375.210938 444.867188 373.519531 429.488281 C 373.296875 427.402344 371.445312 408.496094 377.25 385.839844 C 385.523438 353.582031 404.984375 329.015625 433.523438 314.839844 C 485.761719 288.863281 489.8125 259.5 489.8125 251.117188 C 489.8125 244.851562 487.34375 231.183594 478.121094 219.710938 C 465.75 204.351562 444.328125 196.566406 414.445312 196.566406 C 384.558594 196.566406 364.738281 206.691406 349.25 227.527344 C 337.667969 243.09375 333.984375 258.757812 333.949219 258.898438 C 330.519531 275.148438 314.570312 285.523438 298.324219 282.074219 C 282.074219 278.644531 271.699219 262.679688 275.148438 246.449219 C 275.746094 243.585938 281.632812 217.71875 301.011719 191.648438 C 319.746094 166.460938 354.628906 136.433594 414.460938 136.433594 C 521.644531 136.433594 549.960938 211.4375 549.960938 251.085938 C 549.960938 273.027344 541.230469 328.414062 460.324219 368.628906 C 429.378906 384.007812 433.253906 422.480469 433.300781 422.859375 C 435.121094 439.363281 423.226562 454.21875 406.722656 456.035156 C 405.601562 456.164062 404.492188 456.226562 403.386719 456.226562 Z M 403.355469 456.257812 " fill-opacity="1" fill-rule="nonzero"/></svg>